<?xml version="1.0" standalone="no"?>
<!DOCTYPE svg PUBLIC "-//W3C//DTD SVG 20010904//EN"
 "http://www.w3.org/TR/2001/REC-SVG-20010904/DTD/svg10.dtd">
<svg version="1.0" xmlns="http://www.w3.org/2000/svg"
 width="2048.000000pt" height="1447.000000pt" viewBox="0 0 2048.000000 1447.000000"
 preserveAspectRatio="xMidYMid meet">
<metadata>
Created by potrace 1.13, written by Peter Selinger 2001-2015
</metadata>
<g transform="translate(0.000000,1447.000000) scale(0.100000,-0.100000)"
fill="#000000" stroke="none">
<path d="M5344 11762 c-16 -20 -348 -437 -739 -927 -391 -489 -791 -991 -890
-1115 -200 -251 -1292 -1619 -1507 -1888 l-138 -173 0 -222 0 -223 333 -421
c182 -231 476 -602 652 -824 176 -222 432 -546 569 -719 137 -173 282 -355
321 -405 489 -616 1403 -1773 1418 -1795 16 -23 17 -4 17 390 l-1 415 -132
165 c-72 91 -208 262 -302 381 -93 119 -314 398 -490 620 -176 222 -448 566
-604 764 -156 198 -335 423 -396 500 -61 77 -223 282 -360 455 -137 173 -308
389 -380 480 -72 91 -143 181 -158 201 l-28 37 104 128 c57 71 146 183 198
249 118 148 529 665 864 1085 138 173 340 428 450 565 354 446 735 923 987
1240 l248 310 2 378 c2 209 0 381 -3 383 -4 2 -20 -13 -35 -34z"/>
<path d="M13730 11422 l0 -382 333 -417 c376 -472 658 -826 862 -1083 76 -96
270 -339 430 -540 1102 -1381 1225 -1537 1225 -1544 0 -5 -759 -969 -870
-1106 -21 -25 -124 -155 -230 -290 -106 -135 -224 -283 -261 -330 -37 -47
-200 -254 -363 -460 -163 -206 -343 -433 -400 -505 -56 -71 -208 -263 -336
-425 -128 -162 -269 -339 -312 -393 l-78 -98 0 -410 0 -410 423 533 c232 293
490 618 572 722 83 104 213 269 290 366 77 98 271 344 432 546 478 604 875
1105 1093 1380 112 143 265 335 340 428 74 94 143 181 152 195 16 23 18 53 18
236 0 237 8 207 -95 336 -130 162 -1726 2161 -2589 3244 -329 413 -607 759
-617 770 -19 19 -19 12 -19 -363z"/>
<path d="M10350 10593 c-741 -41 -1390 -299 -1940 -771 -265 -228 -529 -550
-689 -843 l-41 -76 -94 -7 c-52 -3 -109 -11 -127 -18 -37 -12 -110 -71 -231
-184 -68 -65 -85 -75 -158 -98 -44 -14 -88 -26 -96 -26 -8 0 -90 -24 -182 -54
-92 -30 -211 -63 -265 -75 -119 -25 -266 -83 -497 -194 -189 -92 -229 -103
-390 -112 -149 -8 -308 -23 -430 -41 -176 -25 -563 -53 -770 -55 -69 -1 -155
-8 -192 -16 -64 -14 -68 -16 -68 -42 0 -30 33 -86 80 -136 15 -16 42 -52 59
-80 50 -80 206 -231 312 -301 52 -35 156 -93 230 -128 125 -60 385 -156 423
-156 9 0 34 11 56 25 110 70 460 206 545 212 l60 5 -99 -103 c-55 -57 -224
-227 -375 -378 -267 -265 -387 -369 -645 -558 -83 -61 -123 -110 -112 -138 3
-8 24 -27 47 -42 l43 -28 280 -1 c155 0 340 3 411 7 72 5 243 13 380 18 397
16 582 37 809 96 72 18 154 36 181 40 28 4 59 13 70 20 28 17 155 45 208 45
38 0 52 6 95 43 27 23 78 75 112 115 34 40 63 72 65 70 2 -2 13 -39 25 -83 36
-130 117 -340 194 -500 151 -314 342 -582 601 -841 186 -188 308 -288 502
-418 1063 -704 2448 -701 3508 7 223 149 496 393 667 597 413 491 664 1090
728 1735 15 142 15 469 0 610 -104 1029 -692 1936 -1587 2445 -430 245 -881
378 -1393 410 -159 10 -190 10 -310 3z m1600 -3158 c300 -24 647 -52 773 -61
125 -10 227 -21 227 -25 0 -3 -27 -19 -61 -34 -341 -153 -1158 -153 -1494 0
-84 38 -130 85 -120 124 11 45 24 53 79 46 28 -3 296 -25 596 -50z"/>
</g>
</svg>
